<svg version="1.2" xmlns="http://www.w3.org/2000/svg" viewBox="0 0 250 60" width="250" height="60">
	<title>New Project</title>
	<style>
		.s0 { fill: #b2becd } 
	</style>
	<path id="ease ERP solutions" class="s0" aria-label="easeERPsolutions"  d="m16.8 27.2q-0.1 0.9-0.7 1.5-0.6 0.7-1.5 0.7l-6.2-0.1q-1.2 0-2.4-0.2-1.1-0.2-2.1-1-0.9-0.6-1.4-1.5-0.4-0.8-0.4-1.7 0-0.9 0.5-1.7 0.4-0.9 1.3-1.5 0.7-0.5 1.7-0.8 0.9-0.3 1.8-0.4 0.1 0 0.2 0 0.1 0 0.2 0 1 0 1.9 0.3 1 0.3 1.7 0.9 0.7 0.6 1.1 1.5 0.4 0.8 0.4 1.7 0 0.4 0 0.7 0 0.3 0 0.6h-6.2q0.2 0.5 0.7 0.7 0.4 0.3 1 0.3zm-7.8-3.2q0-0.3-0.1-0.5-0.1-0.3-0.2-0.5-0.2-0.1-0.4-0.2-0.2-0.1-0.4-0.2 0 0-0.1 0 0 0 0 0-0.3 0-0.5 0.1-0.2 0.1-0.4 0.3-0.1 0.2-0.2 0.5-0.1 0.2-0.1 0.5zm23.2 3.2q0 0.9-0.7 1.6-0.6 0.6-1.5 0.6h-4.4q-0.4-0.1-0.8-0.2-0.4-0.1-0.7-0.4-0.1 0-0.1 0-0.1 0.1-0.1 0.1 0 0-0.1 0 0 0.1-0.1 0.1-0.5 0.2-1 0.3-0.6 0-1.1 0-0.1 0-0.3 0-0.1 0-0.2 0-0.9 0-1.8-0.3-0.9-0.3-1.6-0.9-0.8-0.6-1.3-1.4-0.5-0.8-0.5-1.8 0-0.9 0.5-1.8 0.5-0.8 1.3-1.4 0.8-0.5 1.7-0.8 0.9-0.3 1.8-0.4 0.1 0 0.2 0 0.1 0 0.2 0 0.4 0 0.8 0.1 0.5 0 0.8 0.1v-0.1h4.3v6.6zm-9-0.3v-3.9q-0.3-0.2-0.6-0.2-0.3-0.1-0.6-0.1-0.8 0-1.3 0.6-0.4 0.7-0.4 1.6 0 0.9 0.4 1.6 0.5 0.7 1.3 0.6 0.3 0 0.6 0 0.3-0.1 0.6-0.2zm24.4 0.4q0 0.9-0.6 1.5-0.7 0.6-1.6 0.6h-8.5q-0.7 0-1.1-0.1-0.3-0.1-0.6-0.3-0.1 0-0.2-0.1-0.1 0-0.2-0.1v0.1l-0.3 0.5h-2.9v-2.2h1.7l5.4-7.6 1.7 1.2-0.3 0.5q0.1 0 0.3 0.1 0.1 0.1 0.2 0.2 1.1 0.6 2 1.6 0.9 1 0.9 2.3 0 0.5-0.2 0.9-0.1 0.5-0.4 0.9zm-8.5-0.6q0.1-0.1 0.1-0.3 0.1-0.1 0.1-0.3 0-0.2 0-0.4-0.1-0.2-0.1-0.3-0.1-0.3-0.2-0.6-0.1-0.2-0.2-0.5-0.1-0.1-0.1-0.2-0.1-0.2-0.2-0.3 0 0 0 0 0 0 0-0.1-0.1 0-0.1 0 0 0 0-0.1l-2.4 3.4q0.4 0.2 0.8 0.2 0.4 0 0.8 0 0.1 0 0.3 0 0.1 0 0.3 0 0.3-0.1 0.5-0.2 0.3-0.1 0.4-0.3zm22.3 0.6q0 0.9-0.7 1.5-0.6 0.7-1.5 0.6h-6.2q-1.2 0-2.3-0.2-1.1-0.2-2.2-1-0.9-0.6-1.3-1.5-0.4-0.8-0.4-1.7 0-0.9 0.4-1.7 0.5-0.9 1.4-1.5 0.7-0.5 1.6-0.8 0.9-0.3 1.9-0.4 0.1 0 0.2 0 0.1 0 0.2 0 1 0 1.9 0.3 0.9 0.3 1.6 0.9 0.8 0.6 1.1 1.5 0.4 0.8 0.4 1.7 0 0.4 0 0.7 0 0.3 0 0.6h-6.1q0.2 0.5 0.6 0.7 0.4 0.3 1 0.3zm-7.7-3.2q-0.1-0.3-0.2-0.5-0.1-0.3-0.2-0.5-0.1-0.1-0.3-0.3-0.2-0.1-0.5-0.1 0 0 0 0-0.1 0-0.1 0-0.2 0-0.5 0.1-0.2 0.1-0.3 0.3-0.2 0.2-0.3 0.5-0.1 0.2-0.1 0.5zm18 5.4l-6.6-0.1q-1.8 0-3.1-1.3-1.3-1.3-1.3-3.1 0-1.1 0.5-2.1 0.6-1 1.6-1.6-0.3-0.5-0.5-0.9-0.1-0.5-0.1-1 0-0.4 0.1-0.8 0.1-0.4 0.3-0.7 0.4-0.8 1.1-1.3 0.8-0.5 1.8-0.5h6.2v2.2l-3.9-0.1q-0.5 0-0.7 0.4-0.3 0.4-0.3 0.8 0 0.5 0.3 0.9 0.2 0.3 0.7 0.3l3.9 0.1v2.1h-3.9q-1 0-1.5 0.7-0.4 0.7-0.4 1.5 0 0.9 0.4 1.6 0.5 0.7 1.5 0.7h3.9zm13.2 0.1h-3.3q-1.1 0-1.8-0.8-0.8-0.8-0.8-1.9v-1.9h-1.7v4.5h-4.5v-13.3h6.8q1.8 0 3.1 1.3 1.3 1.3 1.3 3.1 0 0.9-0.3 1.6-0.3 0.8-0.9 1.4 0 0 0 0 0 0 0.1 0 0 0 0 0 0 0 0 0 0.3 0.4 0.5 0.9 0.2 0.4 0.2 1v1.9h1.3zm-5.8-7.7q0-0.6 0-1.2 0-0.7 0-1.3 0-0.4-0.3-0.7-0.3-0.3-0.7-0.3h-0.7v4.5h0.8q0.4 0 0.6-0.3 0.3-0.3 0.3-0.7zm18-1.2q0 1.9-1.3 3.2-1.3 1.2-3.1 1.2h-2.2l-0.1 4.5h-4.5v-13.3q0.9 0 1.7 0 0.9 0 1.7 0 0.9 0 1.7 0 0.9 0 1.7 0 1.8 0 3.1 1.3 1.3 1.3 1.3 3.1zm-4.9 1.3q0-0.7 0-1.3 0-0.6 0-1.2 0-0.4-0.3-0.7-0.3-0.3-0.7-0.3h-0.7v4.5h0.7q0.4 0 0.7-0.3 0.3-0.3 0.3-0.7zm21.6 5.6q0 0.9-0.6 1.5-0.6 0.6-1.5 0.6h-8.6q-0.6 0-1-0.1-0.4-0.1-0.7-0.2-0.1-0.1-0.2-0.1-0.1-0.1-0.1-0.1h-0.1l-0.3 0.5h-2.8v-2.2h1.7l5.3-7.6 1.7 1.2-0.3 0.5q0.1 0.1 0.3 0.1 0.1 0.1 0.3 0.2 1.1 0.6 2 1.6 0.9 1 0.9 2.3 0 0.5-0.2 0.9-0.2 0.5-0.5 0.9zm-8.5-0.5q0.1-0.2 0.2-0.3 0-0.2 0-0.4 0-0.2 0-0.3 0-0.2-0.1-0.4 0-0.3-0.1-0.5-0.1-0.3-0.2-0.5-0.1-0.2-0.2-0.3-0.1-0.2-0.1-0.3-0.1 0-0.1 0 0 0 0-0.1 0 0 0 0-0.1 0-0.1 0l-2.3 3.4q0.3 0.1 0.7 0.1 0.4 0 0.8 0 0.2 0 0.3 0 0.2 0 0.3 0 0.3 0 0.5-0.1 0.3-0.1 0.4-0.3zm23.2-6.1q0 0.9-0.7 1.5-0.6 0.6-1.5 0.6h-2.7q0.4 0.5 0.6 1.1 0.2 0.6 0.2 1.3 0 0 0 0 0 0.1 0 0.1-0.1 1-0.6 1.9-0.4 0.8-1.2 1.4-0.9 0.6-1.9 0.9-1 0.3-2 0.3-1.1 0-2.1-0.3-1-0.3-1.8-0.9-0.9-0.6-1.3-1.5-0.5-1-0.5-1.9 0-1 0.5-1.9 0.4-0.9 1.3-1.5 0.8-0.5 1.8-0.8 1-0.4 2.1-0.4zm-8.5 4.6q0-0.2 0-0.5-0.1-0.3-0.1-0.6-0.2-0.5-0.5-0.9-0.2-0.5-0.7-0.5-0.4 0-0.7 0.5-0.3 0.4-0.4 0.9-0.1 0.3-0.1 0.6-0.1 0.3-0.1 0.5 0 0.2 0.1 0.5 0 0.3 0.1 0.6 0.1 0.5 0.4 0.9 0.3 0.4 0.7 0.4 0 0 0 0 0 0 0 0 0.5 0 0.7-0.4 0.3-0.4 0.4-0.9 0.1-0.3 0.2-0.6 0-0.3 0-0.5zm17.2 2.1q0 0.9-0.6 1.6-0.7 0.6-1.6 0.6h-5q-1-0.1-1.7-0.8-0.7-0.7-0.7-1.7v-10.8h4.3v11.1zm14.5 0.1q0 0.9-0.7 1.5-0.6 0.6-1.5 0.6h-6.1v-0.3q-0.7 0.2-1.3 0.3-0.7 0.1-1.3 0.1-0.2 0-0.4 0-0.2-0.1-0.4-0.1-1.2-0.1-2.3-0.8-1-0.6-1.3-2 0-0.1 0-0.2 0-0.2 0-0.3v-5.5h4.3v5.2q0 0.5 0.1 0.8 0 0.3 0.2 0.5 0.1 0.1 0.3 0.1 0.2 0.1 0.4 0.1 0.1 0 0.2 0 0.1-0.1 0.3-0.1 0.2 0 0.4-0.1 0.2 0 0.3-0.1 0.2-0.1 0.3-0.1 0.1 0 0.2-0.1v-6.2h4.4v6.7zm8.8 0q0 0.9-0.6 1.5-0.7 0.6-1.5 0.6h-5.4q-1 0-1.7-0.7-0.7-0.7-0.7-1.7v-10.9h4.3v4.5h2v2.2h-2v4.5zm7.2 0q0 0.9-0.6 1.5-0.6 0.6-1.5 0.6h-3.5q-1 0-1.7-0.7-0.7-0.7-0.7-1.7v-6.4h4.3v6.7zm-3.4-9.6q0 0.6-0.7 1.1-0.7 0.5-1.7 0.5-0.9 0-1.6-0.5-0.7-0.5-0.7-1.1 0-0.7 0.7-1.1 0.7-0.5 1.6-0.5 1 0 1.7 0.5 0.7 0.4 0.7 1.1zm18.2 3q0 0.9-0.6 1.5-0.6 0.6-1.5 0.6h-2.8q0.4 0.5 0.6 1.1 0.2 0.6 0.2 1.3 0 0 0 0.1 0 0 0 0 0 1-0.5 1.9-0.5 0.8-1.3 1.4-0.8 0.6-1.8 0.9-1 0.3-2.1 0.3-1 0-2-0.3-1-0.3-1.8-0.9-0.9-0.6-1.4-1.5-0.4-1-0.4-1.9 0-1 0.4-1.9 0.5-0.9 1.4-1.5 0.8-0.5 1.8-0.8 1-0.4 2.1-0.4zm-8.5 4.6q0-0.2-0.1-0.5 0-0.3-0.1-0.6-0.1-0.5-0.4-0.9-0.3-0.4-0.7-0.5-0.4 0-0.7 0.5-0.3 0.4-0.4 0.9-0.1 0.3-0.2 0.6 0 0.3 0 0.5 0 0.2 0 0.5 0.1 0.3 0.1 0.6 0.2 0.5 0.4 0.9 0.3 0.4 0.8 0.4 0 0 0 0 0 0 0 0 0.4 0 0.7-0.4 0.3-0.4 0.4-0.9 0.1-0.3 0.1-0.6 0.1-0.3 0.1-0.5zm23.2 2.2q0 0.8-0.7 1.5-0.6 0.6-1.5 0.6h-6.3v-4.8q0-0.1 0-0.3 0-0.2 0-0.3 0-0.3-0.1-0.6-0.1-0.2-0.3-0.4-0.1-0.2-0.3-0.2-0.2-0.1-0.4-0.1-0.1 0-0.2 0-0.1 0-0.2 0-0.2 0.1-0.4 0.1-0.2 0.1-0.4 0.2-0.1 0-0.2 0.1-0.1 0-0.1 0l-0.1 6.3-4.4-0.1v-8.8l4.5 0.1v0.2q0.5-0.1 1.1-0.2 0.6-0.1 1.2-0.1 0.8 0 1.5 0.2 0.8 0.2 1.4 0.6 0.8 0.5 1.3 1.3 0.4 0.8 0.4 1.7v3zm15.2 0q0 0.9-0.7 1.5-0.6 0.6-1.5 0.6h-8.6q-0.6 0-1-0.1-0.4-0.1-0.6-0.2-0.1-0.1-0.2-0.1-0.1-0.1-0.2-0.1h-0.1l-0.3 0.5h-2.8v-2.2l1.7 0.1 5.3-7.7 1.8 1.2-0.4 0.5q0.2 0.1 0.3 0.1 0.1 0.1 0.3 0.2 1.1 0.6 2 1.6 0.9 1 0.9 2.3 0 0.5-0.2 1-0.2 0.4-0.5 0.8zm-8.4-0.5q0.1-0.2 0.1-0.3 0-0.2 0-0.4 0-0.2 0-0.3 0-0.2 0-0.4-0.1-0.3-0.2-0.5-0.1-0.3-0.2-0.5-0.1-0.2-0.2-0.3-0.1-0.1-0.1-0.2 0-0.1-0.1-0.1 0 0 0 0 0-0.1 0-0.1 0 0-0.1 0l-2.3 3.4q0.4 0.1 0.8 0.1 0.4 0.1 0.8 0.1 0.1 0 0.2 0 0.2-0.1 0.3-0.1 0.3 0 0.6-0.1 0.2-0.1 0.4-0.3z"/>
</svg>