<svg version="1.2" xmlns="http://www.w3.org/2000/svg" viewBox="0 0 250 60" width="250" height="60">
	<title>New Project</title>
	<style>
		.s0 { fill: #b2becd } 
	</style>
	<path id="ease ERP solutions" class="s0" aria-label="ease ERP solutions"  d="m14.1 18.5v1.5h-7.4v2.7h4.5v1.5h-6.1q0-0.2 0-0.6v-5.2zm0 14.2v1.5h-0.9q-4.4 0-7.4-3.1-3.1-3.1-3.1-7.4l0.1-7.6h11.3v1.6l-9.8-0.1v6.1q-0.1 3.7 2.6 6.3 2.6 2.7 6.3 2.7zm0-2.5v1.6h-0.9q-3.3 0-5.7-2.4-1.8-1.8-2.2-4.3l6 0.1-0.1 1.5h-3.8q0.5 0.9 1.2 1.6 1.9 1.9 4.6 1.9zm12.7-11.6v6.2l-7.4-0.1q0.7-2.5 2.7-4.2 2.1-1.7 4.7-1.9zm2.5-2.4l-0.1 18.1h-1.5v-16.6h-0.4q-3.2 0-5.6 2-2.5 2-3.2 5h-3.2v-1.5h2q1.2-3.2 3.9-5.1 2.7-2 6.1-1.9zm-2.5 9.5v8.6h-1.5v-7.1h-4.6v7h-1.5v-7.6q0-0.4 0.1-1zm-11.6 0h3.1q0 0.6 0 1l-0.1 7.6h-1.5v-7.1h-1.5zm6.5-2.4h3.5v-2.8q-2.2 0.7-3.5 2.8zm21.5-7v1.6h-2.1q-3.2 0-5.7 2-2.5 2-3.1 5.4l-0.1 0.5h9q-0.6 2.7-2.8 4.5-2.3 1.7-5 1.7h-2.1v-1.6h2.1q1.6 0 3.1-0.8 1.5-0.8 2.4-2.2l-8.6-0.1 0.4-2.3q0.7-3.7 3.6-6.2 3-2.5 6.8-2.5zm-7.6 7.1h8.6l-0.4 2.3q-0.7 3.8-3.7 6.2-2.9 2.5-6.7 2.5h-2.1v-1.6l2.1 0.1q3.3 0 5.7-2.1 2.5-2.1 3.1-5.3l0.1-0.6h-9q0.6-2.7 2.8-4.4 2.3-1.8 5-1.8h2.1v1.6h-2.1q-1.6 0-3.2 0.8-1.4 0.8-2.3 2.3zm21.1-4.6v1.5h-7.4v2.7h4.5v1.5h-6.1q0-0.2 0-0.5v-5.2zm0 14.1v1.5h-0.9q-4.3 0-7.4-3.1-3.1-3-3-7.4v-7.6h11.4v1.6l-9.9-0.1v6.1q0 3.7 2.6 6.3 2.6 2.7 6.3 2.7zm0-2.4v1.5h-0.9q-3.3 0-5.7-2.4-1.8-1.8-2.2-4.2h6v1.5h-3.8q0.5 0.9 1.1 1.6 1.9 1.9 4.6 2zm19.2-11.7v1.6h-7.4v2.6h4.5v1.6l-6.1-0.1q0-0.1 0-0.5v-5.2zm0 14.1v1.6h-0.9q-4.3 0-7.4-3.1-3.1-3.1-3-7.5v-7.6l11.4 0.1v1.5h-9.9v6.1q0 3.6 2.6 6.3 2.6 2.6 6.3 2.6zm0-2.4v1.6h-0.9q-3.3-0.1-5.7-2.4-1.8-1.9-2.2-4.3h6v1.6h-3.8q0.5 0.9 1.1 1.6 1.9 1.9 4.6 1.9zm3.6-11.7h7.6q-0.2 3.7-3.4 6.1-2-1.2-4.2-1.3zm10 13.7l-0.1 2h-1.5v-2q0-3.7-2.6-6.3-0.4-0.5-0.9-0.8 1.7-1.3 2.6-3.1 1-1.9 1-3.9v-0.5h-9.4l-0.1 16.6h-1.5v-18.2l12.5 0.1v2q0 2.6-1.2 4.9-0.7 1.1-1.6 2.1 2.8 3.1 2.8 7.1zm-2.5 0v2h-1.5v-2q0-2.1-1.3-3.8-1.2-1.8-3.2-2.4v8.2h-1.6v-10q3.2 0.1 5.4 2.5 2.2 2.3 2.2 5.5zm-1.8-12.1l-4.2-0.1v1.9q1.2 0.3 2.5 0.8 0.7-0.7 1.3-1.6 0.3-0.6 0.4-1zm7.9-1.6l7.6 0.1q-0.2 3-2.4 5.2-2.2 2.2-5.2 2.4zm10-2.4v2q0 3.7-2.4 6.6-2.4 2.9-6.1 3.6v5.9h-1.6v-7.3q3.6-0.1 6.1-2.7 2.5-2.6 2.5-6.1v-0.5h-9.4l-0.1 16.5h-1.5v-18.1zm-4.3 4h-4.2v4.2q3.2-1.1 4.2-4.2zm24.9-3.9v1.6h-2.1q-3.2-0.1-5.7 2-2.5 2-3.1 5.4l-0.1 0.5h9q-0.6 2.7-2.8 4.5-2.3 1.7-5 1.7h-2.1v-1.6h2.1q1.6 0 3.1-0.8 1.5-0.8 2.4-2.2l-8.5-0.1 0.3-2.3q0.7-3.7 3.6-6.2 3-2.5 6.8-2.5zm-7.6 7l8.6 0.1-0.4 2.3q-0.7 3.7-3.7 6.2-2.9 2.5-6.7 2.5h-2.1v-1.6h2.1q3.3 0.1 5.7-2 2.5-2.1 3.1-5.4l0.1-0.5h-9q0.6-2.7 2.9-4.5 2.2-1.7 4.9-1.7h2.1v1.6h-2.1q-1.6 0-3.2 0.8-1.4 0.8-2.3 2.2zm22.2-6.9l-0.1 18.1h-1.9q-4.4 0-7.5-3.1-3-3.1-3-7.4v-7.7zm-2 16.6h0.4l0.1-15-9.4-0.1v6.1q-0.1 3.7 2.6 6.3 2.6 2.7 6.3 2.7zm-0.4-14.2l-0.1 13.3q-3.1-0.2-5.3-2.5-2.3-2.4-2.3-5.6l0.1-5.2zm-1.6 11.4v-9.8l-4.5-0.1v3.7q0 2.1 1.2 3.8 1.3 1.8 3.3 2.4zm14.9 0.4v1.5h-7.4l0.1-15.7h1.5v14.1zm0 2.5v1.5h-9.8v-18.1h1.6l-0.1 16.5zm11.3-16.5v15.7q-3.2-0.2-5.4-2.5-2.3-2.4-2.2-5.6v-7.6h1.5v7.6q0 2.2 1.2 3.9 1.3 1.7 3.3 2.3l0.1-13.8zm2.4 0l-0.1 18.1h-2q-4.3 0-7.4-3.1-3-3.1-3-7.4v-7.6h1.6l-0.1 7.6q0 3.7 2.6 6.3 2.7 2.7 6.3 2.7h0.5l0.1-16.6zm10.9 0v1.6l-9.8-0.1v-1.5zm0 2.4v1.6h-2.9v14.1h-1.6l0.1-15.7zm-5.3 0l-0.1 15.7h-1.6l0.1-14.2h-2.9v-1.5zm10.5-2.4l-0.1 18.1h-1.5l0.1-18.1zm-2.5 0v18.1h-1.6l0.1-18.1zm16 0.1v18.1h-2q-4.4 0-7.4-3.1-3.1-3.1-3.1-7.5l0.1-7.6zm-2.1 16.6h0.5v-15l-9.4-0.1v6.1q0 3.7 2.6 6.3 2.6 2.7 6.3 2.7zm-0.4-14.2v13.3q-3.2-0.2-5.4-2.5-2.2-2.4-2.2-5.6v-5.2zm-1.6 11.4v-9.9h-4.5v3.7q0 2.1 1.2 3.8 1.3 1.7 3.3 2.4zm17.7-13.8l-0.1 18.1h-1.6l0.1-18.1zm-2.4 0v6.6q-1.1-2.3-3.3-3.7-2.2-1.4-4.8-1.4h-0.4l-0.1 16.6h-1.5v-18.1h2q3.7 0 6.5 2.3l0.1-2.3zm-0.1 10.5v7.6h-1.5v-7.7q0-2-1.3-3.8-1.2-1.7-3.2-2.3l-0.1 13.8h-1.5v-15.7q3.2 0.2 5.4 2.5 2.2 2.4 2.2 5.6zm16.4-10.4v1.5h-2q-3.3 0-5.8 2-2.4 2.1-3.1 5.4l-0.1 0.5 9.1 0.1q-0.7 2.7-2.9 4.4-2.2 1.7-5 1.7h-2.1v-1.6l2.1 0.1q1.7 0 3.2-0.9 1.5-0.8 2.4-2.2h-8.6l0.4-2.4q0.6-3.7 3.6-6.2 2.9-2.5 6.8-2.5zm-7.7 7.1h8.6l-0.4 2.4q-0.6 3.7-3.6 6.2-3 2.4-6.8 2.4h-2v-1.5h2q3.3 0 5.8-2.1 2.5-2.1 3.1-5.3l0.1-0.5-9.1-0.1q0.7-2.7 2.9-4.4 2.2-1.7 5-1.7h2.1l-0.1 1.5h-2q-1.7 0-3.2 0.8-1.5 0.9-2.4 2.3z"/>
</svg>